<svg xmlns="http://www.w3.org/2000/svg" xmlns:xlink="http://www.w3.org/1999/xlink" width="500" zoomAndPan="magnify" viewBox="0 0 375 374.999991" height="500" preserveAspectRatio="xMidYMid meet" version="1.0"><defs><g/><clipPath id="7d8b6ed662"><rect x="0" width="101" y="0" height="157"/></clipPath><clipPath id="12f834df28"><rect x="0" width="96" y="0" height="157"/></clipPath></defs><rect x="-37.5" width="450" fill="#ffffff" y="-37.499999" height="449.999989" fill-opacity="1"/><rect x="-37.5" width="450" fill="#ffffff" y="-37.499999" height="449.999989" fill-opacity="1"/><g transform="matrix(1, 0, 0, 1, 50, 33)"><g clip-path="url(#7d8b6ed662)"><g fill="#000000" fill-opacity="1"><g transform="translate(1.721872, 122.59474)"><g><path d="M 95.140625 -1.859375 C 94.617188 -1.242188 93.941406 -0.859375 93.109375 -0.703125 C 92.285156 -0.546875 91.457031 -0.46875 90.625 -0.46875 C 76.84375 -0.675781 63.007812 -0.929688 49.125 -1.234375 C 35.238281 -1.546875 21.40625 -1.1875 7.625 -0.15625 C 4.820312 0.0507812 2.847656 -0.4375 1.703125 -1.625 C 0.566406 -2.820312 0.0234375 -4.40625 0.078125 -6.375 C 0.128906 -8.34375 0.414062 -10.46875 0.9375 -12.75 C 1.96875 -16.375 3.625 -19.738281 5.90625 -22.84375 C 8.1875 -25.957031 10.46875 -28.96875 12.75 -31.875 C 16.476562 -36.738281 20.3125 -41.476562 24.25 -46.09375 C 28.1875 -50.707031 32.070312 -55.394531 35.90625 -60.15625 C 38.914062 -63.882812 41.84375 -67.664062 44.6875 -71.5 C 47.539062 -75.34375 50.367188 -79.179688 53.171875 -83.015625 C 54.097656 -84.359375 55 -85.882812 55.875 -87.59375 C 56.757812 -89.300781 57.046875 -90.828125 56.734375 -92.171875 C 56.429688 -93.523438 54.828125 -94.203125 51.921875 -94.203125 C 44.867188 -94.203125 37.789062 -94.253906 30.6875 -94.359375 C 23.59375 -94.460938 16.523438 -94.359375 9.484375 -94.046875 C 9.273438 -94.046875 9.039062 -94.019531 8.78125 -93.96875 C 8.519531 -93.914062 8.285156 -93.890625 8.078125 -93.890625 C 7.046875 -93.890625 5.957031 -93.992188 4.8125 -94.203125 C 3.675781 -94.410156 2.898438 -95.132812 2.484375 -96.375 C 2.273438 -97 2.171875 -97.644531 2.171875 -98.3125 C 2.171875 -98.988281 2.222656 -99.691406 2.328125 -100.421875 C 2.535156 -101.867188 2.535156 -103.550781 2.328125 -105.46875 C 2.117188 -107.382812 2.171875 -109.222656 2.484375 -110.984375 C 2.796875 -112.753906 3.78125 -114 5.4375 -114.71875 C 6.988281 -115.445312 8.90625 -115.679688 11.1875 -115.421875 C 13.46875 -115.160156 15.4375 -115.03125 17.09375 -115.03125 C 19.269531 -115.03125 21.445312 -115.03125 23.625 -115.03125 C 25.800781 -115.03125 27.976562 -115.03125 30.15625 -115.03125 C 39.175781 -115.132812 48.191406 -115.1875 57.203125 -115.1875 C 66.222656 -115.1875 75.289062 -115.082031 84.40625 -114.875 C 87 -114.875 89.410156 -114.535156 91.640625 -113.859375 C 93.867188 -113.191406 95.035156 -111.203125 95.140625 -107.890625 C 95.242188 -103.953125 94.410156 -100.269531 92.640625 -96.84375 C 90.878906 -93.425781 88.753906 -90.1875 86.265625 -87.125 C 83.785156 -84.070312 81.40625 -81.09375 79.125 -78.1875 C 74.769531 -72.59375 70.363281 -67.050781 65.90625 -61.5625 C 61.457031 -56.070312 57.109375 -50.523438 52.859375 -44.921875 C 52.128906 -43.890625 50.882812 -42.414062 49.125 -40.5 C 47.363281 -38.582031 45.597656 -36.484375 43.828125 -34.203125 C 42.066406 -31.921875 40.691406 -29.71875 39.703125 -27.59375 C 38.722656 -25.46875 38.597656 -23.734375 39.328125 -22.390625 C 40.054688 -21.035156 41.195312 -20.359375 42.75 -20.359375 C 48.03125 -20.359375 53.285156 -20.359375 58.515625 -20.359375 C 63.753906 -20.359375 69.019531 -20.359375 74.3125 -20.359375 C 75.96875 -20.359375 78.035156 -20.566406 80.515625 -20.984375 C 83.003906 -21.398438 85.492188 -21.660156 87.984375 -21.765625 C 90.472656 -21.867188 92.570312 -21.503906 94.28125 -20.671875 C 95.988281 -19.847656 96.894531 -18.140625 97 -15.546875 C 97.207031 -12.328125 97.050781 -9.0625 96.53125 -5.75 C 96.425781 -5.125 96.320312 -4.523438 96.21875 -3.953125 C 96.113281 -3.390625 95.910156 -2.847656 95.609375 -2.328125 C 95.503906 -2.222656 95.425781 -2.144531 95.375 -2.09375 C 95.320312 -2.039062 95.242188 -1.960938 95.140625 -1.859375 Z M 95.140625 -1.859375 "/></g></g></g></g></g><g transform="matrix(1, 0, 0, 1, 232, 209)"><g clip-path="url(#12f834df28)"><g fill="#000000" fill-opacity="1"><g transform="translate(1.648228, 122.202958)"><g><path d="M 32.328125 -32.171875 C 30.773438 -32.171875 29.015625 -31.988281 27.046875 -31.625 C 25.078125 -31.269531 24.09375 -30.054688 24.09375 -27.984375 C 24.09375 -25.492188 24.144531 -23.03125 24.25 -20.59375 C 24.351562 -18.15625 24.40625 -15.695312 24.40625 -13.21875 C 24.40625 -12.488281 24.484375 -11.242188 24.640625 -9.484375 C 24.796875 -7.722656 24.820312 -6.035156 24.71875 -4.421875 C 24.613281 -2.816406 24.144531 -1.757812 23.3125 -1.25 C 22.90625 -1.039062 22.492188 -0.910156 22.078125 -0.859375 C 21.660156 -0.804688 21.242188 -0.726562 20.828125 -0.625 C 18.859375 -0.625 16.914062 -0.597656 15 -0.546875 C 13.082031 -0.492188 11.191406 -0.414062 9.328125 -0.3125 C 8.191406 -0.3125 6.867188 -0.257812 5.359375 -0.15625 C 3.859375 -0.0507812 2.585938 -0.363281 1.546875 -1.09375 C 0.515625 -2.019531 0.101562 -3.570312 0.3125 -5.75 C 0.519531 -7.925781 0.625 -9.632812 0.625 -10.875 C 0.625 -12.945312 0.625 -15.046875 0.625 -17.171875 C 0.625 -19.296875 0.625 -21.34375 0.625 -23.3125 C 0.625 -27.5625 0.625 -31.757812 0.625 -35.90625 C 0.625 -40.050781 0.675781 -44.195312 0.78125 -48.34375 C 0.78125 -56.84375 0.78125 -65.289062 0.78125 -73.6875 C 0.78125 -82.082031 0.726562 -90.53125 0.625 -99.03125 C 0.625 -100.269531 0.519531 -101.796875 0.3125 -103.609375 C 0.101562 -105.421875 0.0507812 -107.207031 0.15625 -108.96875 C 0.257812 -110.726562 0.675781 -112.128906 1.40625 -113.171875 C 2.332031 -114.304688 3.597656 -115.003906 5.203125 -115.265625 C 6.816406 -115.523438 8.476562 -115.578125 10.1875 -115.421875 C 11.894531 -115.265625 13.367188 -115.132812 14.609375 -115.03125 C 17.617188 -114.925781 20.570312 -114.875 23.46875 -114.875 C 26.375 -114.875 29.273438 -114.820312 32.171875 -114.71875 C 37.984375 -114.613281 43.816406 -114.273438 49.671875 -113.703125 C 55.523438 -113.140625 61.25 -111.976562 66.84375 -110.21875 C 69.644531 -109.382812 72.492188 -108.113281 75.390625 -106.40625 C 78.296875 -104.695312 80.914062 -102.363281 83.25 -99.40625 C 85.582031 -96.457031 87.210938 -92.703125 88.140625 -88.140625 C 91.046875 -74.460938 91.046875 -63.554688 88.140625 -55.421875 C 85.242188 -47.285156 79.179688 -41.25 69.953125 -37.3125 C 64.253906 -34.820312 58.140625 -33.316406 51.609375 -32.796875 C 45.078125 -32.273438 38.753906 -32.066406 32.640625 -32.171875 C 32.535156 -32.171875 32.457031 -32.171875 32.40625 -32.171875 C 32.351562 -32.171875 32.328125 -32.171875 32.328125 -32.171875 Z M 24.71875 -56.578125 C 24.71875 -55.441406 25.179688 -54.457031 26.109375 -53.625 C 27.253906 -52.695312 28.707031 -52.363281 30.46875 -52.625 C 32.226562 -52.882812 33.78125 -52.960938 35.125 -52.859375 C 36.894531 -52.859375 38.582031 -52.804688 40.1875 -52.703125 C 41.789062 -52.597656 43.421875 -52.597656 45.078125 -52.703125 C 48.398438 -52.804688 51.507812 -53.398438 54.40625 -54.484375 C 57.3125 -55.578125 59.75 -57.570312 61.71875 -60.46875 C 63.0625 -62.4375 64.039062 -64.816406 64.65625 -67.609375 C 65.28125 -70.410156 65.488281 -73.1875 65.28125 -75.9375 C 65.082031 -78.6875 64.460938 -81.046875 63.421875 -83.015625 C 60.929688 -87.773438 57.507812 -90.800781 53.15625 -92.09375 C 48.8125 -93.394531 44.148438 -94.046875 39.171875 -94.046875 C 38.140625 -94.046875 36.710938 -94.097656 34.890625 -94.203125 C 33.078125 -94.304688 31.34375 -94.304688 29.6875 -94.203125 C 28.03125 -94.097656 26.785156 -93.632812 25.953125 -92.8125 C 25.128906 -91.976562 24.71875 -91.039062 24.71875 -90 Z M 24.71875 -56.578125 "/></g></g></g></g></g><path fill="#000000" d="M 316.164062 197.992188 L 229.167969 197.992188 C 210.960938 197.992188 196.148438 183.179688 196.148438 164.972656 L 196.148438 77.976562 C 196.148438 59.769531 210.960938 44.957031 229.167969 44.957031 L 316.164062 44.957031 C 334.371094 44.957031 349.183594 59.769531 349.183594 77.976562 L 349.183594 164.972656 C 349.183594 183.179688 334.371094 197.992188 316.164062 197.992188 Z M 229.167969 50.839844 C 214.183594 50.839844 202.03125 62.992188 202.03125 77.976562 L 202.03125 164.972656 C 202.03125 179.957031 214.183594 192.105469 229.167969 192.105469 L 309.988281 192.105469 C 328.386719 192.105469 343.296875 177.195312 343.296875 158.796875 L 343.296875 77.976562 C 343.296875 62.992188 331.148438 50.839844 316.164062 50.839844 Z M 229.167969 50.839844 " fill-opacity="1" fill-rule="nonzero"/><path fill="#000000" d="M 161.164062 347.59375 L 74.167969 347.59375 C 55.960938 347.59375 41.148438 332.78125 41.148438 314.574219 L 41.148438 227.578125 C 41.148438 209.371094 55.960938 194.558594 74.167969 194.558594 L 161.164062 194.558594 C 179.371094 194.558594 194.183594 209.371094 194.183594 227.578125 L 194.183594 314.574219 C 194.183594 332.78125 179.371094 347.59375 161.164062 347.59375 Z M 74.167969 200.445312 C 59.183594 200.445312 47.035156 212.59375 47.035156 227.578125 L 47.035156 314.574219 C 47.035156 329.558594 59.183594 341.707031 74.167969 341.707031 L 154.988281 341.707031 C 173.386719 341.707031 188.296875 326.796875 188.296875 308.398438 L 188.296875 227.578125 C 188.296875 212.59375 176.148438 200.445312 161.164062 200.445312 Z M 74.167969 200.445312 " fill-opacity="1" fill-rule="nonzero"/><path fill="#000000" d="M 146.042969 336.335938 L 59.046875 336.335938 C 39.753906 336.335938 24.066406 320.644531 24.066406 301.355469 L 24.066406 214.359375 C 24.066406 195.070312 39.753906 179.378906 59.046875 179.378906 L 146.042969 179.378906 C 165.332031 179.378906 181.023438 195.070312 181.023438 214.359375 L 181.023438 301.355469 C 181.023438 320.644531 165.332031 336.335938 146.042969 336.335938 Z M 59.046875 189.1875 C 45.164062 189.1875 33.875 200.480469 33.875 214.359375 L 33.875 301.355469 C 33.875 315.234375 45.164062 326.527344 59.046875 326.527344 L 146.042969 326.527344 C 159.921875 326.527344 171.214844 315.234375 171.214844 301.355469 L 171.214844 214.359375 C 171.214844 200.480469 159.921875 189.1875 146.042969 189.1875 Z M 59.046875 189.1875 " fill-opacity="1" fill-rule="nonzero"/><path stroke-linecap="butt" transform="matrix(0.4905, 0, 0, 0.4905, -54.008214, -60.011228)" fill="none" stroke-linejoin="miter" d="M 545.020207 193.232929 L 722.382259 193.232929 C 724.38914 193.232929 726.388056 193.328495 728.386973 193.52759 C 730.38589 193.718721 732.376843 194.013382 734.343904 194.411573 C 736.310966 194.8018 738.2621 195.287592 740.181378 195.868951 C 742.100657 196.450309 743.988081 197.127233 745.843649 197.899723 C 747.699217 198.664249 749.514966 199.52434 751.282932 200.472034 C 753.058862 201.419727 754.779046 202.447059 756.451446 203.561993 C 758.115883 204.676926 759.724573 205.871498 761.277516 207.145708 C 762.830459 208.419918 764.319692 209.773766 765.737251 211.191324 C 767.162773 212.608883 768.508657 214.098116 769.782867 215.651059 C 771.057077 217.204002 772.251649 218.812692 773.366582 220.485093 C 774.481516 222.14953 775.508848 223.869713 776.456541 225.645643 C 777.404235 227.413609 778.264326 229.229358 779.028852 231.084926 C 779.801342 232.940494 780.478266 234.827918 781.059624 236.747197 C 781.640983 238.674439 782.126775 240.617609 782.524966 242.584671 C 782.915193 244.559696 783.209854 246.542685 783.400985 248.541602 C 783.60008 250.540519 783.70361 252.539435 783.70361 254.546316 L 783.70361 431.908368 C 783.70361 433.915249 783.60008 435.922129 783.400985 437.921046 C 783.209854 439.919963 782.915193 441.902952 782.524966 443.870014 C 782.126775 445.845039 781.640983 447.788209 781.059624 449.707488 C 780.478266 451.63473 779.801342 453.522153 779.028852 455.377722 C 778.264326 457.23329 777.404235 459.041075 776.456541 460.817005 C 775.508848 462.584971 774.481516 464.305155 773.366582 465.977555 C 772.251649 467.649956 771.057077 469.258646 769.782867 470.811589 C 768.508657 472.364532 767.162773 473.845801 765.737251 475.271323 C 764.319692 476.688882 762.830459 478.034766 761.277516 479.308976 C 759.732536 480.583186 758.115883 481.777758 756.451446 482.892691 C 754.779046 484.007625 753.058862 485.042921 751.282932 485.990614 C 749.514966 486.938308 747.699217 487.790436 745.843649 488.562925 C 743.988081 489.327451 742.100657 490.004375 740.181378 490.585734 C 738.2621 491.175056 736.310966 491.660848 734.343904 492.051075 C 732.376843 492.441302 730.38589 492.735963 728.386973 492.935058 C 726.388056 493.134153 724.38914 493.229719 722.382259 493.229719 L 545.020207 493.229719 C 543.013326 493.229719 541.006446 493.134153 539.007529 492.935058 C 537.008612 492.735963 535.025623 492.441302 533.058561 492.051075 C 531.083536 491.660848 529.140366 491.175056 527.221087 490.585734 C 525.301809 490.004375 523.406422 489.327451 521.550853 488.562925 C 519.695285 487.790436 517.8875 486.938308 516.11157 485.990614 C 514.343604 485.042921 512.62342 484.007625 510.95102 482.892691 C 509.278619 481.777758 507.669929 480.583186 506.116986 479.308976 C 504.564043 478.034766 503.082774 476.688882 501.657252 475.271323 C 500.239693 473.845801 498.893809 472.364532 497.619599 470.811589 C 496.345389 469.258646 495.150817 467.649956 494.035884 465.977555 C 492.92095 464.305155 491.885654 462.584971 490.937961 460.817005 C 489.990267 459.041075 489.138139 457.23329 488.36565 455.377722 C 487.601124 453.522153 486.9242 451.63473 486.342841 449.707488 C 485.753519 447.788209 485.267727 445.845039 484.8775 443.870014 C 484.487273 441.902952 484.192612 439.919963 483.993517 437.921046 C 483.802386 435.922129 483.698856 433.915249 483.698856 431.908368 L 483.698856 254.546316 C 483.698856 252.539435 483.802386 250.540519 483.993517 248.541602 C 484.192612 246.542685 484.487273 244.559696 484.8775 242.584671 C 485.267727 240.617609 485.753519 238.674439 486.342841 236.747197 C 486.9242 234.827918 487.601124 232.940494 488.36565 231.084926 C 489.138139 229.229358 489.990267 227.413609 490.937961 225.645643 C 491.885654 223.869713 492.92095 222.14953 494.035884 220.485093 C 495.150817 218.812692 496.345389 217.204002 497.619599 215.651059 C 498.893809 214.098116 500.239693 212.608883 501.657252 211.191324 C 503.082774 209.773766 504.564043 208.419918 506.116986 207.145708 C 507.669929 205.871498 509.278619 204.676926 510.95102 203.561993 C 512.62342 202.447059 514.343604 201.419727 516.11157 200.472034 C 517.8875 199.52434 519.695285 198.664249 521.550853 197.899723 C 523.406422 197.127233 525.301809 196.450309 527.221087 195.868951 C 529.140366 195.287592 531.083536 194.8018 533.058561 194.411573 C 535.025623 194.013382 537.008612 193.718721 539.007529 193.52759 C 541.006446 193.328495 543.013326 193.232929 545.020207 193.232929 Z M 545.020207 193.232929 " stroke="#000000" stroke-width="20" stroke-opacity="1" stroke-miterlimit="10"/><path fill="#000000" d="M 145.957031 184.257812 L 58.964844 184.257812 C 42.351562 184.257812 28.886719 197.722656 28.886719 214.335938 L 28.886719 301.332031 C 28.886719 317.945312 42.351562 331.40625 58.964844 331.40625 L 145.957031 331.40625 C 162.570312 331.40625 176.035156 317.945312 176.035156 301.332031 L 176.035156 214.335938 C 176.035156 197.722656 162.570312 184.257812 145.957031 184.257812 Z M 57.574219 259.75 C 54.59375 259.75 52.175781 257.332031 52.175781 254.351562 C 52.175781 251.367188 54.59375 248.949219 57.574219 248.949219 C 60.558594 248.949219 62.976562 251.367188 62.976562 254.351562 C 62.976562 257.332031 60.558594 259.75 57.574219 259.75 Z M 128.78125 269.550781 C 120.511719 273.351562 111.359375 275.351562 102.269531 275.351562 C 102.054688 275.351562 101.84375 275.351562 101.628906 275.351562 C 92.785156 275.261719 83.851562 273.253906 75.796875 269.554688 C 73.582031 268.535156 72.609375 265.917969 73.628906 263.699219 C 74.648438 261.480469 77.269531 260.515625 79.484375 261.53125 C 86.421875 264.71875 94.109375 266.445312 101.71875 266.523438 C 109.699219 266.601562 117.804688 264.882812 125.09375 261.53125 C 127.308594 260.511719 129.929688 261.480469 130.949219 263.699219 C 131.96875 265.917969 131 268.535156 128.78125 269.554688 Z M 147.902344 259.75 C 144.917969 259.75 142.5 257.332031 142.5 254.351562 C 142.5 251.367188 144.917969 248.949219 147.902344 248.949219 C 150.882812 248.949219 153.300781 251.367188 153.300781 254.351562 C 153.300781 257.332031 150.882812 259.75 147.902344 259.75 Z M 147.902344 259.75 " fill-opacity="1" fill-rule="nonzero"/><path fill="#000000" d="M 300.464844 34.65625 L 213.472656 34.65625 C 196.859375 34.65625 183.394531 48.121094 183.394531 64.734375 L 183.394531 151.726562 C 183.394531 168.339844 196.859375 181.804688 213.472656 181.804688 L 300.464844 181.804688 C 317.078125 181.804688 330.542969 168.339844 330.542969 151.726562 L 330.542969 64.734375 C 330.542969 48.121094 317.078125 34.65625 300.464844 34.65625 Z M 212.34375 110.238281 C 209.359375 110.238281 206.941406 107.816406 206.941406 104.835938 C 206.941406 101.855469 209.359375 99.4375 212.34375 99.4375 C 215.324219 99.4375 217.742188 101.855469 217.742188 104.835938 C 217.742188 107.816406 215.324219 110.238281 212.34375 110.238281 Z M 285.71875 123.269531 C 284.972656 124.886719 283.371094 125.839844 281.703125 125.839844 C 281.085938 125.839844 280.457031 125.710938 279.867188 125.4375 C 272.929688 122.25 265.242188 120.523438 257.632812 120.445312 C 249.652344 120.359375 241.546875 122.085938 234.257812 125.4375 C 232.042969 126.457031 229.421875 125.484375 228.402344 123.269531 C 227.382812 121.050781 228.351562 118.433594 230.570312 117.414062 C 239.035156 113.523438 248.417969 111.507812 257.71875 111.613281 C 266.566406 111.707031 275.5 113.714844 283.554688 117.414062 C 285.769531 118.433594 286.738281 121.050781 285.722656 123.269531 Z M 302.667969 110.238281 C 299.6875 110.238281 297.269531 107.816406 297.269531 104.835938 C 297.269531 101.855469 299.6875 99.4375 302.667969 99.4375 C 305.652344 99.4375 308.070312 101.855469 308.070312 104.835938 C 308.070312 107.816406 305.652344 110.238281 302.667969 110.238281 Z M 302.667969 110.238281 " fill-opacity="1" fill-rule="nonzero"/><path fill="#000000" d="M 300.976562 186.558594 L 213.980469 186.558594 C 194.691406 186.558594 179 170.867188 179 151.574219 L 179 64.582031 C 179 45.289062 194.691406 29.597656 213.980469 29.597656 L 300.976562 29.597656 C 320.269531 29.597656 335.957031 45.289062 335.957031 64.582031 L 335.957031 151.574219 C 335.957031 170.867188 320.269531 186.558594 300.976562 186.558594 Z M 213.984375 39.410156 C 200.105469 39.410156 188.8125 50.699219 188.8125 64.582031 L 188.8125 151.574219 C 188.8125 165.457031 200.105469 176.75 213.984375 176.75 L 300.980469 176.75 C 314.863281 176.75 326.152344 165.457031 326.152344 151.574219 L 326.152344 64.582031 C 326.152344 50.699219 314.863281 39.410156 300.980469 39.410156 Z M 213.984375 39.410156 " fill-opacity="1" fill-rule="nonzero"/></svg>